<svg width="63" height="30" viewBox="0 0 63 30" fill="none" xmlns="http://www.w3.org/2000/svg">
<path d="M47.7188 0.40625H50.4462L56.349 18.7251H53.6215L47.7188 0.40625ZM62.0889 0.40625L56.349 18.7251L55.8605 18.1959L61.5189 0.40625H62.0889ZM53.6215 28.6173V18.7251H56.349V28.6173H53.6215Z" fill="#102D2D"/>
<path d="M31.808 29.0252C29.7183 29.0252 27.7915 28.6724 26.0274 27.9668C24.2634 27.2611 22.7165 26.257 21.3866 24.9543C20.084 23.6516 19.0663 22.1183 18.3335 20.3543C17.6008 18.5631 17.2344 16.6091 17.2344 14.4922C17.2344 12.3754 17.6008 10.435 18.3335 8.67092C19.0663 6.87974 20.084 5.34638 21.3866 4.07085C22.7165 2.76818 24.2634 1.76404 26.0274 1.05842C27.7915 0.352807 29.7183 0 31.808 0C33.8706 0 35.7839 0.352807 37.5479 1.05842C39.3391 1.76404 40.886 2.76818 42.1887 4.07085C43.4914 5.34638 44.5091 6.87974 45.2418 8.67092C45.9746 10.435 46.341 12.3754 46.341 14.4922C46.341 16.6091 45.9746 18.5631 45.2418 20.3543C44.5091 22.1183 43.4914 23.6516 42.1887 24.9543C40.886 26.257 39.3391 27.2611 37.5479 27.9668C35.7839 28.6724 33.8706 29.0252 31.808 29.0252ZM31.808 28.496C34.0063 28.496 35.9874 27.9125 37.7515 26.7455C39.5426 25.5785 40.9539 23.9502 41.9852 21.8605C43.0164 19.7708 43.5321 17.3147 43.5321 14.4922C43.5321 11.7512 43.0164 9.33582 41.9852 7.24612C40.981 5.15641 39.5969 3.5145 37.8329 2.32038C36.0689 1.12627 34.0606 0.529209 31.808 0.529209C29.5826 0.529209 27.5743 1.1127 25.7832 2.27968C24.0191 3.44665 22.6215 5.075 21.5902 7.1647C20.586 9.22726 20.084 11.6698 20.084 14.4922C20.084 17.2333 20.586 19.6622 21.5902 21.7791C22.5943 23.8688 23.9784 25.5107 25.7425 26.7048C27.5336 27.8989 29.5555 28.496 31.808 28.496Z" fill="#102D2D"/>
<path d="M0 28.6173V0.40625H2.68676V28.6173H0ZM5.98415 14.5728L8.63021 14.4507L15.225 28.6173H12.3754L5.98415 14.5728ZM6.10628 0.935461H2.36109V0.40625H6.87974C8.34525 0.40625 9.66149 0.718349 10.8285 1.34255C11.9954 1.96674 12.9182 2.82162 13.5966 3.90718C14.2751 4.99274 14.6144 6.24114 14.6144 7.65237C14.6144 9.03646 14.2751 10.2713 13.5966 11.3568C12.9182 12.4153 11.9954 13.2566 10.8285 13.8808C9.66149 14.4778 8.34525 14.7764 6.87974 14.7764H2.56464V14.2471H6.10628C7.24612 14.2471 8.23669 13.9622 9.078 13.3923C9.94645 12.8223 10.6114 12.0489 11.0727 11.0719C11.5612 10.0677 11.8055 8.9279 11.8055 7.65237C11.8055 6.40397 11.5612 5.26413 11.0727 4.23285C10.6114 3.20157 9.94645 2.40097 9.078 1.83105C8.23669 1.23399 7.24612 0.935461 6.10628 0.935461Z" fill="#102D2D"/>
</svg>
